<svg xmlns="http://www.w3.org/2000/svg" xml:space="preserve" width="668.83" height="320.1" viewBox="0 0 176.96 84.69" opacity=".3"><path fill="#ff6708" d="m14 0 24.44 84.7 27-84.4 24.15 84.4L115.73.3l24.73 84.4L166.32.3z"/><path fill="#fffcfb" d="M158.85 115.96q5.04-.19 8.19 2.94 3.15 3.12 3.15 7.82 0 4.01-2.35 7.06-3.1 4.05-8.78 4.05-5.7 0-8.8-3.86-2.47-3.05-2.47-7.23 0-4.7 3.2-7.83 3.2-3.14 7.86-2.95zm.19 1q-2.9 0-4.4 2.95-1.23 2.42-1.23 6.97 0 5.4 1.9 7.98 1.32 1.8 3.7 1.8 1.6 0 2.67-.78 1.37-1 2.14-3.17.76-2.2.76-5.7 0-4.2-.78-6.26-.78-2.09-2-2.94-1.19-.86-2.76-.86z" aria-label="O" style="-inkscape-font-specification:&quot;Times New Roman, Bold&quot;" transform="translate(-17.83 -101.16)"/><path fill="#fffcfb" d="M56.73 117.2v8.91h.44q2.08 0 3.02-1.3.93-1.31 1.19-3.86h.61v11.46h-.61q-.2-1.88-.82-3.07-.62-1.2-1.44-1.6-.82-.42-2.39-.42v6.17q0 1.8.15 2.2.16.41.58.67.42.26 1.35.26h1.31q3.07 0 4.9-1.42 1.86-1.42 2.67-4.33h.6l-.99 6.96H48.4v-.6h.73q.95 0 1.53-.34.42-.22.64-.77.18-.39.18-2.04V119.7q0-1.48-.08-1.82-.16-.57-.6-.87-.61-.46-1.67-.46h-.73v-.6h18.3v6.48h-.6q-.48-2.37-1.33-3.4-.84-1.04-2.39-1.52-.9-.3-3.39-.3z" aria-label="E" style="-inkscape-font-specification:&quot;Times New Roman, Bold&quot;" transform="translate(-17.83 -101.16)"/><path fill="#fffcfb" d="M118.08 115.95V123h-.59q-.66-2.77-2.46-4.24-1.8-1.47-4.09-1.47-1.9 0-3.5 1.1t-2.33 2.87q-.95 2.27-.95 5.05 0 2.73.7 4.99.68 2.24 2.16 3.4 1.47 1.14 3.82 1.14 1.92 0 3.51-.85 1.61-.84 3.38-2.9v1.76q-1.71 1.79-3.57 2.6-1.85.8-4.33.8-3.26 0-5.8-1.31-2.53-1.3-3.91-3.76-1.37-2.45-1.37-5.21 0-2.92 1.52-5.53 1.53-2.62 4.12-4.06 2.6-1.44 5.51-1.44 2.15 0 4.54.93 1.38.54 1.76.54.48 0 .83-.35.36-.36.46-1.12z" aria-label="C" style="-inkscape-font-specification:&quot;Times New Roman, Bold&quot;" transform="translate(-17.83 -101.16)"/><path d="m31.94 165.53 5.55-13.5h8.33v.57h-.66q-.9 0-1.45.31-.38.21-.6.71-.17.36-.17 1.89V169q0 1.57.17 1.96.16.4.68.7.51.28 1.37.28h.66v.56H35.14v-.56h.66q.91 0 1.45-.32.38-.2.6-.72.17-.36.17-1.9v-15.17l-7.84 18.67h-.37l-7.96-18.53v14.4q0 1.52.07 1.87.2.75.85 1.23.66.47 2.06.47v.56h-7v-.56h.21q.68.02 1.27-.21.59-.24.9-.63.3-.4.46-1.1.03-.17.03-1.55v-12.94q0-1.56-.17-1.93-.16-.4-.67-.68-.52-.3-1.38-.3h-.65v-.56h8.36z" aria-label="M" style="-inkscape-font-specification:&quot;Times New Roman, Bold&quot;" transform="translate(-17.83 -101.16)"/><path d="M81.71 152.05q4.72-.18 7.65 2.75 2.96 2.92 2.96 7.31 0 3.76-2.2 6.6-2.9 3.79-8.22 3.79t-8.23-3.6q-2.3-2.86-2.3-6.77 0-4.4 2.98-7.32 3-2.94 7.36-2.76zm.18.93q-2.7 0-4.12 2.76-1.15 2.27-1.15 6.52 0 5.05 1.78 7.46 1.23 1.69 3.46 1.69 1.5 0 2.5-.73 1.28-.93 2-2.97.7-2.05.7-5.34 0-3.9-.72-5.84-.73-1.95-1.86-2.75-1.12-.8-2.6-.8z" aria-label="O" style="-inkscape-font-specification:&quot;Times New Roman, Bold&quot;" transform="translate(-17.83 -101.16)"/><path d="M123.05 172.5v-.56h.68q.89 0 1.35-.27.49-.29.71-.77.14-.32.14-1.9v-13.46q0-1.57-.17-1.96-.16-.4-.68-.68-.5-.3-1.35-.3h-.68v-.56h9.16q3.66 0 5.9 1 2.73 1.22 4.13 3.69 1.42 2.47 1.42 5.6 0 2.16-.7 3.98-.69 1.81-1.79 3-1.1 1.18-2.55 1.9-1.43.72-3.52 1.1-.92.19-2.9.19zm7.8-19.3v15.96q0 1.27.12 1.56.12.28.4.44.41.22 1.18.22 2.52 0 3.85-1.72 1.81-2.32 1.81-7.21 0-3.94-1.23-6.3-.99-1.83-2.52-2.5-1.1-.47-3.61-.45z" aria-label="D" style="-inkscape-font-specification:&quot;Times New Roman, Bold&quot;" transform="translate(-17.83 -101.16)"/><path d="M185.87 166.8h-7.09l-.84 1.94q-.41.98-.41 1.61 0 .85.68 1.25.4.23 1.96.35v.55h-6.66v-.55q1.07-.16 1.77-.89t1.71-3.03l7.17-16h.29l7.23 16.45q1.03 2.33 1.7 2.94.5.46 1.41.53v.55h-9.7v-.55h.4q1.17 0 1.65-.32.32-.24.32-.68 0-.27-.09-.55-.03-.13-.44-1.1zm-.5-1.1-3-6.9-3.07 6.9z" aria-label="A" style="-inkscape-font-specification:&quot;Times New Roman, Bold&quot;" transform="translate(-17.83 -101.16)"/></svg>